<svg
   viewBox="0 0 512 512"
   xmlns="http://www.w3.org/2000/svg" >
  <path
     d="M0 0h512v512H0z"
     id="path1" />
  <path
     fill="#fff"
     d="M 53.6,457.2 C 156.5,331.9 154.4,331.3 154.4,331.3 l -72.4,13.1 c 0,0 141.7,-123.8 148.0,-128.0 6.2,-4.1 -64.0,13.8 -66.1,13.15048 -2.09,-0.69 149.09,-186.18 153.29,-186.8 4.19,-0.69 143.8,31.14 143.8,31.14 0,0 -175.3,124.58 -171.13,124.58 4.199,0 79.79,-8.99 79.79,-8.99 0,0 -190.0,122.5 -179.5,119.0 10.49,-3.46 79.79,-8.9 79.7,-8.99 z"
     id="path2"
     style="stroke-width:4.5" />
</svg>
